HIERARCHY
ROOT Hips
{
	OFFSET 0.00000 0.00000 0.00000
	CHANNELS 6 Xposition Yposition Zposition Zrotation Yrotation Xrotation 
	JOINT LHipJoint
	{
		OFFSET 0 0 0
		CHANNELS 3 Zrotation Yrotation Xrotation
		JOINT LeftUpLeg
		{
			OFFSET 1.62964 -1.40469 0.78906
			CHANNELS 3 Zrotation Yrotation Xrotation
			JOINT LeftLeg
			{
				OFFSET 2.29640 -6.30932 0.00000
				CHANNELS 3 Zrotation Yrotation Xrotation
				JOINT LeftFoot
				{
					OFFSET 2.29451 -6.30412 0.00000
					CHANNELS 3 Zrotation Yrotation Xrotation
					JOINT LeftToeBase
					{
						OFFSET 0.03611 -0.09921 1.56387
						CHANNELS 3 Zrotation Yrotation Xrotation
						End Site
						{
							OFFSET 0.00000 -0.00000 0.80291
						}
					}
				}
			}
		}
	}
	JOINT RHipJoint
	{
		OFFSET 0 0 0
		CHANNELS 3 Zrotation Yrotation Xrotation
		JOINT RightUpLeg
		{
			OFFSET -1.73712 -1.40469 0.78906
			CHANNELS 3 Zrotation Yrotation Xrotation
			JOINT RightLeg
			{
				OFFSET -2.28137 -6.26801 0.00000
				CHANNELS 3 Zrotation Yrotation Xrotation
				JOINT RightFoot
				{
					OFFSET -2.28681 -6.28298 0.00000
					CHANNELS 3 Zrotation Yrotation Xrotation
					JOINT RightToeBase
					{
						OFFSET -0.15927 -0.43759 1.61103
						CHANNELS 3 Zrotation Yrotation Xrotation
						End Site
						{
							OFFSET -0.00000 -0.00000 0.84630
						}
					}
				}
			}
		}
	}
	JOINT LowerBack
	{
		OFFSET 0 0 0
		CHANNELS 3 Zrotation Yrotation Xrotation
		JOINT Spine
		{
			OFFSET -0.04227 2.04338 -0.00225
			CHANNELS 3 Zrotation Yrotation Xrotation
			JOINT Spine1
			{
				OFFSET -0.02148 2.04482 -0.04273
				CHANNELS 3 Zrotation Yrotation Xrotation
				JOINT Neck
				{
					OFFSET 0 0 0
					CHANNELS 3 Zrotation Yrotation Xrotation
					JOINT Neck1
					{
						OFFSET 0.09180 1.44629 0.19359
						CHANNELS 3 Zrotation Yrotation Xrotation
						JOINT Head
						{
							OFFSET 0.00887 1.40645 0.14750
							CHANNELS 3 Zrotation Yrotation Xrotation
							End Site
							{
								OFFSET -0.00669 1.50671 0.03707
							}
						}
					}
				}
				JOINT LeftShoulder
				{
					OFFSET 0 0 0
					CHANNELS 3 Zrotation Yrotation Xrotation
					JOINT LeftArm
					{
						OFFSET 2.17674 1.86763 -0.06520
						CHANNELS 3 Zrotation Yrotation Xrotation
						JOINT LeftForeArm
						{
							OFFSET 4.65776 -0.00000 0.00000
							CHANNELS 3 Zrotation Yrotation Xrotation
							JOINT LeftHand
							{
								OFFSET 3.55539 -0.00000 0.00000
								CHANNELS 3 Zrotation Yrotation Xrotation
								JOINT LeftFingerBase
								{
									OFFSET 0 0 0
									CHANNELS 3 Zrotation Yrotation Xrotation
									JOINT LeftHandIndex1
									{
										OFFSET 0.70726 -0.00000 0.00000
										CHANNELS 3 Zrotation Yrotation Xrotation
										End Site
										{
											OFFSET 0.57022 -0.00000 0.00000
										}
									}
								}
								JOINT LThumb
								{
									OFFSET 0 0 0
									CHANNELS 3 Zrotation Yrotation Xrotation
									End Site
									{
										OFFSET 0.57892 -0.00000 0.57892
									}
								}
							}
						}
					}
				}
				JOINT RightShoulder
				{
					OFFSET 0 0 0
					CHANNELS 3 Zrotation Yrotation Xrotation
					JOINT RightArm
					{
						OFFSET -2.80694 1.55459 -0.32496
						CHANNELS 3 Zrotation Yrotation Xrotation
						JOINT RightForeArm
						{
							OFFSET -4.71925 -0.00000 -0.00000
							CHANNELS 3 Zrotation Yrotation Xrotation
							JOINT RightHand
							{
								OFFSET -3.56990 -0.00000 0.00000
								CHANNELS 3 Zrotation Yrotation Xrotation
								JOINT RightFingerBase
								{
									OFFSET 0 0 0
									CHANNELS 3 Zrotation Yrotation Xrotation
									JOINT RightHandIndex1
									{
										OFFSET -0.50776 -0.00000 0.00000
										CHANNELS 3 Zrotation Yrotation Xrotation
										End Site
										{
											OFFSET -0.40937 -0.00000 0.00000
										}
									}
								}
								JOINT RThumb
								{
									OFFSET 0 0 0
									CHANNELS 3 Zrotation Yrotation Xrotation
									End Site
									{
										OFFSET -0.41562 -0.00000 0.41562
									}
								}
							}
						}
					}
				}
			}
		}
	}
}
MOTION
Frames: 7
Frame Time: .0083333
9.2569 16.2993 19.4373 0 0 0 0 0 0 -21 0 0 0 0 0 0 0 0 0 0 0 0 0 0 21 0 0 0 0 0 0 0 0 0 0 0 0 0 0 0 0 0 0 0 0 0 0 -16 0 0 21 0 0 11 0 0 0 -8 0 0 0 0 0 0 0 0 0 0 0 0 0 0 0 0 0 0 0 0 8 0 0 0 0 0 0 0 0 0 0 0 0 0 0 0 0 0
9.2569 16.2993 19.4373 179.7640 -2.2483 -152.8350 0.0000 0.0000 0.0000 -16.3580 -17.5054 -18.4122 0.1538 2.5269 6.9642 0.2174 -1.4817 -8.4124 2.6908 -10.1768 -29.5512 0.0000 0.0000 0.0000 16.9545 16.5768 -17.6459 -0.1232 -2.2626 6.2320 -1.2499 -0.1947 -21.2159 -2.9672 10.6417 -31.0809 -6.0003 -1.7906 -30.6081 0.4126 -1.5547 -3.6967 2.9908 -1.4679 11.9753 -4.7383 0.1428 -0.8067 7.0256 -0.5817 9.0298 3.1588 -0.3767 3.1224 -0.0000 0.0000 0.0000 -88.1000 -1.1083 24.3554 8.4897 -14.3434 -1.0702 -0.0000 -0.0000 5.2147 24.4828 -11.8871 -5.3585 -7.1250 0.0000 -0.0000 -1.8850 16.9610 1.2538 -0.0000 0.0000 0.0000 93.1417 -1.9685 5.7974 -13.2104 21.5947 -2.5302 0.0000 0.0000 3.5092 -17.6877 -51.7798 14.0655 7.1250 -0.0000 -0.0000 59.2373 -77.5567 -47.7751
9.2548 16.2781 19.4477 179.7390 -2.2057 -151.9260 0.0000 0.0000 0.0000 -16.0427 -17.8761 -19.6069 0.1650 2.6169 7.2139 0.2194 -1.3977 -8.4672 2.8083 -10.3781 -30.2100 0.0000 0.0000 0.0000 16.5756 16.7168 -18.8547 -0.1300 -2.3239 6.4017 -1.2498 -0.0774 -21.1738 -3.0997 10.8547 -31.7913 -5.9214 -1.7881 -31.6177 0.3446 -1.5797 -3.7683 2.8330 -1.5110 12.3180 -4.6560 0.1197 -0.7092 6.9941 -0.5733 8.6243 3.1244 -0.3645 2.9635 -0.0000 -0.0000 0.0000 -88.1900 -1.3811 23.7166 8.5014 -14.3624 -1.0731 -0.0000 -0.0000 5.7828 24.1381 -11.7559 -5.2167 -7.1250 0.0000 -0.0000 -2.1181 17.1387 1.4009 -0.0000 -0.0000 0.0000 93.2631 -1.8509 6.0548 -13.2034 21.5846 -2.5276 0.0000 0.0000 3.4960 -17.7700 -51.1504 14.0143 7.1250 -0.0000 -0.0000 56.5381 -77.3405 -45.1689
9.2498 16.2567 19.4533 179.8210 -2.0395 -151.1880 0.0000 0.0000 0.0000 -15.6741 -18.3121 -20.4444 0.1699 2.6557 7.3217 0.2217 -0.9655 -8.6057 2.8618 -10.4678 -30.5054 0.0000 0.0000 0.0000 16.3151 16.9383 -19.9166 -0.1419 -2.4277 6.6891 -1.2494 0.1220 -21.1035 -3.1074 10.8669 -31.8323 -5.6816 -1.6526 -32.5276 0.2384 -1.4851 -3.8199 2.5982 -1.4885 12.6218 -4.5693 0.0824 -0.4966 6.9920 -0.5946 8.2007 3.0978 -0.3707 2.7804 0.0000 0.0000 0.0000 -88.2568 -1.5580 23.1506 8.4682 -14.3090 -1.0649 -0.0000 -0.0000 6.5676 24.0225 -11.8196 -5.2163 -7.1250 0.0000 -0.0000 -2.2021 17.0813 1.4592 0.0000 0.0000 0.0000 93.4357 -1.6857 5.8492 -13.1280 21.4745 -2.5000 0.0000 0.0000 3.7334 -17.3987 -51.4019 13.7610 7.1250 -0.0000 -0.0000 57.7964 -77.2940 -46.2334
9.2474 16.2594 19.4559 179.8030 -2.0255 -151.2980 0.0000 0.0000 0.0000 -15.7242 -18.4175 -20.2840 0.1702 2.6574 7.3263 0.2213 -0.8060 -8.6368 2.9258 -10.5739 -30.8559 0.0000 0.0000 0.0000 16.2932 16.8563 -19.7962 -0.1385 -2.3983 6.6078 -1.2414 0.1554 -21.0245 -3.0570 10.7868 -31.5640 -5.5515 -1.6157 -32.5152 0.1363 -1.4460 -3.7207 2.4347 -1.4582 12.7231 -4.5055 0.0466 -0.4053 6.9922 -0.6203 7.9154 3.0798 -0.3792 2.6682 0.0000 -0.0000 0.0000 -88.3330 -1.7307 22.4427 8.3631 -14.1397 -1.0390 -0.0000 -0.0000 7.9294 24.1213 -12.1117 -5.3672 -7.1250 0.0000 -0.0000 -2.1488 16.7543 1.4392 0.0000 -0.0000 0.0000 93.5958 -1.6706 5.8358 -13.1719 21.5386 -2.5161 0.0000 0.0000 3.7570 -17.0145 -51.5759 13.4814 7.1250 -0.0000 -0.0000 58.7317 -77.2083 -46.9771
9.2458 16.2612 19.4585 179.7230 -2.1141 -151.3670 0.0000 0.0000 0.0000 -15.8186 -18.5014 -20.2191 0.1735 2.6829 7.3971 0.2207 -0.8436 -8.6139 2.8680 -10.4783 -30.5399 0.0000 0.0000 0.0000 16.2756 16.6184 -19.6935 -0.1311 -2.3340 6.4297 -1.2259 0.2083 -20.8739 -3.1466 10.9286 -32.0396 -5.4288 -1.6357 -32.5869 -0.0051 -1.4634 -3.5840 2.2071 -1.4538 12.9056 -4.4976 -0.0133 -0.3124 6.8987 -0.7229 8.1263 3.0460 -0.4389 2.7274 0.0000 0.0000 0.0000 -88.4243 -2.1060 20.6685 8.3856 -14.1760 -1.0445 -0.0000 -0.0000 9.7717 23.0291 -11.8963 -5.0077 -7.1250 0.0000 -0.0000 -2.8984 17.0969 1.9207 0.0000 0.0000 0.0000 93.8086 -1.5664 5.8945 -13.1874 21.5612 -2.5217 0.0000 0.0000 3.6774 -16.2830 -50.8783 12.7683 7.1250 -0.0000 -0.0000 56.3658 -76.6292 -44.3205
9.2387 16.2704 19.4532 179.5630 -2.4164 -151.8270 0.0000 0.0000 0.0000 -16.1397 -18.6482 -19.5889 0.1720 2.6720 7.3669 0.2206 -0.8345 -8.6150 2.9321 -10.5843 -30.8904 0.0000 0.0000 0.0000 16.3381 16.0329 -19.0721 -0.1192 -2.2254 6.1290 -1.2100 0.1791 -20.7468 -3.2308 11.0597 -32.4814 -5.2666 -1.7003 -32.3326 -0.2072 -1.5252 -3.3677 1.8853 -1.4512 13.0464 -4.3788 -0.0551 -0.1310 6.8729 -0.7828 8.0163 3.0100 -0.4702 2.6588 0.0000 0.0000 0.0000 -88.2211 -2.2723 20.5908 8.4283 -14.2448 -1.0550 -0.0000 -0.0000 10.1665 22.2688 -11.8539 -4.8082 -7.1250 0.0000 -0.0000 -3.4269 17.2151 2.2632 0.0000 0.0000 0.0000 94.0975 -1.3710 5.7015 -13.0918 21.4216 -2.4867 0.0000 0.0000 3.7752 -15.3080 -49.9696 11.8372 7.1250 -0.0000 -0.0000 53.6644 -75.8256 -41.2071
